<?xml version="1.0" encoding="utf-8"?>
<!-- Generator: Adobe Illustrator 23.0.3, SVG Export Plug-In . SVG Version: 6.00 Build 0)  -->
<svg version="1.1" id="Layer_1" xmlns="http://www.w3.org/2000/svg" xmlns:xlink="http://www.w3.org/1999/xlink" x="0px" y="0px"
	 viewBox="0 0 600 600" style="enable-background:new 0 0 600 600;" xml:space="preserve">
<style type="text/css">
	.st0{fill:transparent;}
	.st1{fill:#00AEEF;}
</style>
<g id="XMLID_334_">
	<g id="XMLID_14720_">
		<g id="XMLID_14721_">
			<g id="XMLID_14722_">
				<path id="XMLID_14723_" class="st0" d="M200.43,492.14c-0.14,0-0.28-0.02-0.41-0.03c-3.04-0.18-5.49-1.56-7.09-3.92
					c-5.07-7.48-0.63-23.92,4.08-41.35c3.41-12.67,7.66-28.44,5.03-33.1c-0.32-0.55-0.69-0.81-1.29-0.94
					c-83.32-19.74-125.57-69.86-125.57-148.94c0-35.55,4.5-80.47,39.7-112.35c34.45-31.18,93.84-46.33,181.62-46.33
					c96.69,0,156.75,14.75,188.98,46.41c29.87,29.34,32.35,69.84,32.35,112.26c0,49.34-15.09,86.1-46.13,112.43
					c-36.2,30.7-95.15,46.26-175.2,46.26c-5.55,0-29.7,20.15-47.33,34.86C223.36,478.92,207.19,492.14,200.43,492.14z"/>
			</g>
		</g>
	</g>
	<g id="XMLID_14714_">
		<g id="XMLID_14715_">
			<g id="XMLID_14716_">
				<path id="XMLID_14717_" class="st1" d="M197.93,496.36c-0.14,0-0.29-0.02-0.41-0.05c-3.13-0.18-5.65-1.57-7.3-3.97
					c-5.21-7.61-0.65-24.32,4.19-42.02c3.51-12.89,7.88-28.91,5.17-33.66c-0.33-0.54-0.71-0.82-1.33-0.96
					C112.6,395.64,69.17,344.7,69.17,264.31c0-36.13,4.62-81.78,40.82-114.19c35.4-31.69,96.47-47.09,186.7-47.09
					c99.4,0,161.13,14.99,194.28,47.16c30.71,29.83,33.25,71.01,33.25,114.11c0,50.15-15.51,87.53-47.42,114.28
					c-37.21,31.2-97.82,47.01-180.11,47.01c-5.7,0-30.53,20.48-48.65,35.44C221.5,482.92,204.89,496.36,197.93,496.36z
					 M296.69,109.36c-88.69,0-148.44,14.88-182.69,45.52c-26.77,23.96-38.72,57.74-38.72,109.44c0,77.06,41.83,125.93,124.34,145.24
					c2.23,0.53,4.05,1.86,5.21,3.9c4.07,7.07,0.08,21.66-4.53,38.54c-3.83,14.09-8.6,31.56-5.07,36.71
					c0.38,0.57,1.04,1.22,2.69,1.35h0.01c5.16,0,28.93-19.63,46.28-33.93c27.76-22.92,45.14-36.83,52.47-36.83
					c80.85,0,140.15-15.34,176.26-45.61c30.36-25.47,45.14-61.24,45.14-109.38c0-41.68-2.38-81.42-31.33-109.5
					C454.83,123.8,394.43,109.36,296.69,109.36z"/>
			</g>
		</g>
	</g>
	<g id="XMLID_14708_">
		<g id="XMLID_14709_">
			<g id="XMLID_14710_">
				<path id="XMLID_14711_" class="st1" d="M203.61,494.77c-0.14,0-4.6,2.21-5.41,0.96c-1.7-2.64-2.66-2.57-4.3-4.97
					c-5.21-7.61-0.65-24.32,4.18-42.03c3.52-12.88,7.88-28.91,5.17-33.65c-0.32-0.55-0.7-0.83-1.33-0.95
					c-85.66-20.07-129.08-71.02-129.08-151.4c0-36.14,4.63-81.78,40.82-114.2c35.4-31.68,96.47-47.08,186.7-47.08
					c99.4,0,161.13,14.99,194.28,47.17c30.71,29.82,33.25,71,33.25,114.11c0,50.15-15.52,87.52-47.42,114.28
					c-37.22,31.2-97.83,47.02-180.11,47.02c-5.71,0-30.53,20.48-48.65,35.43C225.18,481.34,210.23,493.14,203.61,494.77z
					 M300.36,107.77c-88.7,0-148.45,14.88-182.69,45.52c-26.77,23.96-38.72,57.73-38.72,109.44c0,77.06,41.83,125.92,124.34,145.24
					c2.23,0.53,4.05,1.87,5.21,3.89c4.08,7.07,0.09,21.67-4.52,38.55c-3.83,14.08-10.6,31.56-7.07,36.71
					c0.38,0.57,1.03,1.21,2.7,1.35h0.01c5.15,0,28.93-19.63,46.28-33.93c27.75-22.92,44.14-37.82,51.47-37.82
					c80.85,0,143.15-14.35,179.26-44.61c30.37-25.47,45.14-61.24,45.14-109.38c0-41.68-2.39-81.43-31.33-109.51
					C458.5,122.2,398.1,107.77,300.36,107.77z"/>
			</g>
		</g>
	</g>
</g>
</svg>
